<svg xmlns="http://www.w3.org/2000/svg" 
width="375" 
viewBox="0 0 375 375" 
height="375" 
version="1.0">
<defs>
<clipPath id="a">
<path d="M 133.867188 115 L 241.117188 115 L 241.117188 207.039062 L 133.867188 207.039062 Z M 133.867188 115"/>
</clipPath><clipPath id="b"><path d="M 206 102.039062 L 222 102.039062 L 222 121 L 206 121 Z M 206 102.039062"/>
</clipPath><clipPath id="c"><path d="M 154 102.039062 L 169 102.039062 L 169 121 L 154 121 Z M 154 102.039062"/>
</clipPath></defs><path fill="#FFF" d="M-37.5 -37.5H412.5V412.5H-37.5z"/>
<path fill="#FFF" d="M-37.5 -37.5H412.5V412.5H-37.5z"/>
<path fill="#FFF" d="M-37.5 -37.5H412.5V412.5H-37.5z"/>
<g clip-path="url(#a)"><path d="M 187.492188 207.039062 L 196.589844 202.113281 L 200.28125 189.019531 L 210.082031 183.484375 L 214.183594 170.574219 L 237.671875 157.246094 L 241.074219 144.769531 L 218.144531 158.09375 L 214.179688 170.574219 L 200.117188 178.550781 L 187.488281 171.558594 L 174.855469 178.550781 L 160.796875 170.574219 L 156.832031 158.09375 L 133.90625 144.769531 L 137.304688 157.246094 L 160.796875 170.574219 L 164.898438 183.484375 L 174.699219 189.019531 L 178.386719 202.113281 L 187.488281 207.039062 Z M 174.699219 189.023438 L 187.492188 196.246094 L 200.28125 189.023438 L 187.492188 181.667969 Z M 187.492188 171.460938 L 200.875 163.679688 L 204.582031 151.164062 L 227.933594 137.570312 L 231.945312 124.765625 L 208.425781 138.203125 L 204.496094 125.777344 L 187.488281 115.550781 L 170.480469 125.777344 L 166.550781 138.203125 L 143.03125 124.765625 L 147.042969 137.570312 L 170.394531 151.164062 L 174.105469 163.679688 L 187.488281 171.460938 Z M 187.492188 126 L 208.425781 138.203125 L 204.585938 151.164062 L 187.492188 161.113281 L 170.398438 151.164062 L 166.554688 138.203125 Z M 187.492188 126" 
fill-rule="evenodd"/></g><g clip-path="url(#b)"><path fill="#ED3237" d="M 210.058594 108.605469 L 206.707031 120.898438 L 217.957031 114.515625 L 221.355469 102.039062 Z M 210.058594 108.605469" fill-rule="evenodd"/></g><g clip-path="url(#c)"><path fill="#ED3237" d="M 165.296875 108.605469 L 168.648438 120.898438 L 157.398438 114.515625 L 154 102.039062 Z M 165.296875 108.605469" 
fill-rule="evenodd"/></g><g><g><g><path d="M 6.527344 -2.789062 L 23.828125 -29.195312 L 1.976562 -29.195312 L 1.976562 -26.40625 L 18.375 -26.40625 L 1.074219 0 L 23.097656 0 L 23.097656 -2.789062 Z M 6.527344 -2.789062" 
transform="translate(68.442 253.83)"/>
</g></g></g><g><g><g><path d="M 26.40625 2.363281 L 33.1875 -29.195312 L 30.140625 -29.195312 L 25.589844 -7.984375 L 16.832031 -30.914062 L 8.027344 -7.984375 L 3.519531 -29.195312 L 0.429688 -29.195312 L 7.257812 2.363281 L 16.832031 -23.054688 Z M 26.40625 2.363281" transform="translate(101.932 253.83)"/></g></g></g><g><g><g>
<path d="M 20.566406 0 L 20.566406 -2.789062 L 6.226562 -2.789062 L 6.226562 -13.179688 L 20.136719 -13.179688 L 20.136719 -16.015625 L 6.226562 -16.015625 L 6.226562 -26.40625 L 20.566406 -26.40625 L 20.566406 -29.195312 L 3.21875 -29.195312 L 3.21875 0 Z M 20.566406 0" 
transform="translate(144.137 253.83)"/>
</g></g></g><g><g><g><path d="M 6.226562 -3.003906 L 6.226562 -29.195312 L 3.21875 -29.195312 L 3.21875 0 L 16.660156 0 L 16.660156 -3.003906 Z M 6.226562 -3.003906" transform="translate(176.51 253.83)"/></g></g></g><g><g><g><path d="M 6.226562 0 L 6.226562 -29.195312 L 3.21875 -29.195312 L 3.21875 0 Z M 6.226562 0" transform="translate(202.615 253.83)"/></g></g></g><g><g><g>
<path d="M 16.015625 -8.328125 L 16.015625 -10.777344 L 1.632812 -10.777344 L 1.632812 -8.328125 Z M 16.015625 -8.328125" 
transform="translate(220.648 253.83)"/>
</g></g></g><g><g><g><path d="M 11.292969 -13.738281 C 15.070312 -12.835938 17.648438 -11.851562 19.019531 -10.734375 C 19.964844 -9.960938 20.4375 -8.972656 20.4375 -7.769531 C 20.4375 -6.570312 20.179688 -5.582031 19.664062 -4.894531 C 18.375 -3.089844 16.058594 -2.191406 12.792969 -2.191406 C 8.242188 -2.191406 5.667969 -3.734375 5.109375 -6.828125 L 1.589844 -6.828125 C 2.617188 -1.890625 6.355469 0.558594 12.792969 0.558594 C 15.671875 0.558594 18.074219 -0.0429688 20.007812 -1.332031 C 22.328125 -2.832031 23.527344 -5.066406 23.527344 -7.984375 C 23.527344 -10.390625 22.585938 -12.238281 20.695312 -13.523438 C 19.363281 -14.46875 17.21875 -15.328125 14.253906 -16.101562 C 11.25 -16.875 9.316406 -17.519531 8.414062 -17.988281 C 6.441406 -18.976562 5.453125 -20.351562 5.496094 -22.15625 C 5.496094 -23.097656 5.667969 -23.914062 6.097656 -24.515625 C 7.214844 -26.191406 9.1875 -27.050781 12.023438 -27.050781 C 16.015625 -27.050781 18.289062 -25.761719 18.890625 -23.269531 L 22.15625 -23.269531 C 21.082031 -27.480469 17.6875 -29.625 12.023438 -29.625 C 9.445312 -29.625 7.171875 -28.9375 5.28125 -27.566406 C 3.347656 -26.191406 2.363281 -24.171875 2.363281 -21.425781 C 2.363281 -17.6875 5.367188 -15.113281 11.292969 -13.738281 Z M 11.292969 -13.738281" 
transform="translate(246.839 253.83)"/></g></g></g><g><g><g>
<path d="M 7.941406 -10.734375 L 13.265625 -24.171875 L 18.546875 -10.734375 Z M 26.0625 0 L 13.265625 -31.214844 L 0.429688 0 L 3.691406 0 L 6.828125 -7.941406 L 19.664062 -7.941406 L 22.796875 0 Z M 26.0625 0" transform="translate(280.071 253.83)"/></g></g></g></svg>