<svg xmlns="http://www.w3.org/2000/svg" width="375" viewBox="0 0 375 375" height="375" version="1.0"><defs><clipPath id="a"><path d="M 93 118 L 281.964844 118 L 281.964844 279.972656 L 93 279.972656 Z M 93 118"/></clipPath><clipPath id="b"><path d="M 221 94.722656 L 248 94.722656 L 248 128 L 221 128 Z M 221 94.722656"/></clipPath><clipPath id="c"><path d="M 128 94.722656 L 155 94.722656 L 155 128 L 128 128 Z M 128 94.722656"/></clipPath></defs><g clip-path="url(#a)"><path d="M 187.464844 279.972656 L 203.5 271.28125 L 210 248.183594 L 227.273438 238.410156 L 234.5 215.636719 L 275.890625 192.121094 L 281.878906 170.113281 L 241.480469 193.621094 L 234.492188 215.636719 L 209.710938 229.710938 L 187.457031 217.375 L 165.203125 229.710938 L 140.421875 215.636719 L 133.4375 193.621094 L 93.042969 170.113281 L 99.027344 192.121094 L 140.421875 215.636719 L 147.648438 238.410156 L 164.921875 248.183594 L 171.421875 271.28125 L 187.457031 279.972656 Z M 164.925781 248.1875 L 187.464844 260.933594 L 210 248.1875 L 187.464844 235.207031 Z M 187.464844 217.199219 L 211.046875 203.476562 L 217.578125 181.390625 L 258.730469 157.40625 L 265.796875 134.820312 L 224.347656 158.523438 L 217.429688 136.605469 L 187.457031 118.5625 L 157.488281 136.605469 L 150.566406 158.523438 L 109.121094 134.820312 L 116.1875 157.40625 L 157.335938 181.390625 L 163.875 203.476562 L 187.457031 217.199219 Z M 187.464844 136.996094 L 224.355469 158.523438 L 217.585938 181.390625 L 187.464844 198.949219 L 157.34375 181.390625 L 150.574219 158.523438 Z M 187.464844 136.996094" fill-rule="evenodd"/></g><g clip-path="url(#b)"><path fill="#ED3237" d="M 227.226562 106.308594 L 221.324219 127.992188 L 241.148438 116.734375 L 247.136719 94.722656 Z M 227.226562 106.308594" fill-rule="evenodd"/></g><g clip-path="url(#c)"><path fill="#ED3237" d="M 148.359375 106.308594 L 154.257812 127.992188 L 134.4375 116.734375 L 128.445312 94.722656 Z M 148.359375 106.308594" fill-rule="evenodd"/></g></svg>